<svg xmlns="http://www.w3.org/2000/svg" xmlns:xlink="http://www.w3.org/1999/xlink" width="119px" height="23px" viewBox="0 0 119 23" version="1.1">
    <defs>
        <linearGradient x1="50%" y1="100%" x2="50%" y2="0%" id="linearGradient-1">
            <stop stop-color="#0024FF" offset="0%"/>
            <stop stop-color="#0079FF" offset="78%"/>
            <stop stop-color="#FF00B7" offset="78%"/>
            <stop stop-color="#FF0000" offset="100%"/>
        </linearGradient>
    </defs>
    <g id="Page-1" stroke="none" stroke-width="1" fill="none" fill-rule="evenodd">
        <g fill-rule="nonzero">
            <path d="M10.8247654,17.2180024 L11.1867701,14.3268259 C11.221078,14.052823 11.0267669,13.8028877 10.752764,13.7685798 C10.7321579,13.7659997 10.711411,13.7647059 10.690644,13.7647059 L6.35837466,13.7647059 C6.08223229,13.7647059 5.85837466,13.5408483 5.85837466,13.2647059 C5.85837466,13.244922 5.85954886,13.2251556 5.86189107,13.2055109 L7.36969169,0.559194968 C7.40238417,0.284994652 7.20660338,0.0362088873 6.93240307,0.00351640934 C6.91275835,0.00117420093 6.89299195,1.83267199e-16 6.8732081,0 L3.5467026,0 C3.29343178,4.93519373e-16 3.08016266,0.189377092 3.05021119,0.440870662 L1.06658916,17.096753 C1.03393293,17.3709576 1.2297466,17.6197175 1.50395124,17.6523738 C1.52357436,17.6547108 1.54331878,17.6558824 1.56308057,17.6558824 L10.3286393,17.6558824 C10.5807616,17.6558824 10.7934418,17.4681712 10.8247654,17.2180024 Z M19.1991188,17.2150117 L21.1827408,0.559129338 C21.215397,0.284924703 21.0195834,0.0361648205 20.7453787,0.00350858881 C20.7257556,0.00117158491 20.7060112,-1.14652486e-16 20.6862494,0 L17.3596689,0 C17.1063981,4.93519373e-16 16.893129,0.189377092 16.8631775,0.440870662 L14.8795555,17.096753 C14.8468992,17.3709576 15.0427129,17.6197175 15.3169176,17.6523738 C15.3365407,17.6547108 15.3562851,17.6558824 15.3760469,17.6558824 L18.7026274,17.6558824 C18.9558982,17.6558824 19.1691673,17.4665053 19.1991188,17.2150117 Z M28.8324574,17.2152194 L29.7542195,9.50294118 L29.7542195,9.50294118 C29.8824339,8.41764706 29.9337197,7.49117647 29.9337197,6.16764706 L29.9337197,5.37352941 C30.6517204,7.14705882 31.2927925,8.49705882 32.0364361,9.74117647 L36.4311348,17.4046167 C36.5202586,17.5600301 36.6857212,17.6558824 36.8648758,17.6558824 L40.8751735,17.6558824 C41.1284443,17.6558824 41.3417135,17.4665053 41.3716649,17.2150117 L43.355287,0.559129338 C43.3879432,0.284924703 43.1921295,0.0361648205 42.9179249,0.00350858881 C42.8983018,0.00117158491 42.8785574,2.18414422e-16 42.8587956,0 L39.5329147,0 C39.2793457,4.65798862e-17 39.0659245,0.18981076 39.0363315,0.441647093 L38.0368707,8.94705882 L38.0368707,8.94705882 C37.9086563,9.97941176 37.8573705,10.8529412 37.8317276,11.9647059 L37.4992597,11.3047071 C37.4986667,11.3035298 37.4980783,11.3023502 37.4974946,11.3011682 L36.8339784,9.95764541 C36.8324297,9.95450934 36.830848,9.95138961 36.8292337,9.94828673 L36.0925781,8.53230698 C36.089534,8.52645584 36.0863745,8.5206655 36.0831014,8.51493937 L31.359836,0.251870659 C31.2708053,0.0961168419 31.1051524,-3.10511695e-16 30.9257486,0 L26.9928453,0 C26.7395745,2.68569699e-16 26.5263054,0.189377092 26.4963539,0.440870662 L24.5127319,17.096753 C24.4800756,17.3709576 24.6758893,17.6197175 24.9500939,17.6523738 C24.9697171,17.6547108 24.9894615,17.6558824 25.0092233,17.6558824 L28.3359908,17.6558824 C28.5891818,17.6558824 28.8024102,17.4666212 28.8324574,17.2152194 Z M51.0048358,17.2150046 L51.9011228,9.68823529 L51.9011228,9.68823529 C52.2344803,10.3764706 52.721695,11.3029412 53.1832669,12.0176471 L56.7023072,17.4284852 C56.7945516,17.5703191 56.9522665,17.6558824 57.1214583,17.6558824 L61.1146106,17.6558824 C61.390753,17.6558824 61.6146106,17.4320247 61.6146106,17.1558824 C61.6146106,17.0561387 61.5847785,16.9586745 61.5289493,16.8760191 L56.4052246,9.29032306 C56.2875041,9.11603741 56.2914335,8.8867159 56.4150559,8.71656565 L62.1712598,0.793894168 C62.3335731,0.570490913 62.2840498,0.25780589 62.0606466,0.0954926231 C61.9752225,0.0334278892 61.8723427,7.99824616e-16 61.7667524,0 L58.0274222,0 C57.8677525,3.62397762e-16 57.7176847,0.0762581727 57.6235529,0.205229574 L53.2589638,6.18521707 C53.0961666,6.40826792 52.783375,6.45711314 52.5603241,6.29431593 C52.4143058,6.18774216 52.3371849,6.01065027 52.3586229,5.83115174 L52.9882545,0.559294905 C53.0210021,0.285101175 52.8252714,0.0362760065 52.5510777,0.00352833487 C52.5314001,0.00117819015 52.5116002,-5.91515532e-17 52.4917828,0 L49.1653915,0 C48.9121207,-6.74022768e-17 48.6988515,0.189377092 48.6689001,0.440870662 L46.685278,17.096753 C46.6526218,17.3709576 46.8484355,17.6197175 47.1226401,17.6523738 C47.1422632,17.6547108 47.1620077,17.6558824 47.1817695,17.6558824 L50.5083435,17.6558824 C50.7616171,17.6558824 50.9748876,17.4665013 51.0048358,17.2150046 Z M79.3827837,17.2147795 L79.7257354,14.323603 C79.7582634,14.0493832 79.5623334,13.8007149 79.2881136,13.7681869 C79.2685668,13.7658682 79.2489002,13.7647059 79.2292164,13.7647059 L73.0578285,13.7647059 C72.7816862,13.7647059 72.5578285,13.5408483 72.5578285,13.2647059 C72.5578285,13.1661816 72.5869363,13.0698533 72.6414971,12.9878158 L76.2169184,7.61181798 C76.3698406,7.38188446 76.3074105,7.07151861 76.077477,6.91859645 C75.9955206,6.8640896 75.8992996,6.83498427 75.8008728,6.834928 L72.0996102,6.83281202 C71.9332755,6.83271693 71.7777837,6.91534479 71.684782,7.05325042 L65.0602418,16.8763208 C64.9058442,17.1052663 64.9662772,17.4160271 65.1952226,17.5704247 C65.2778157,17.6261243 65.3751645,17.6558824 65.4747841,17.6558824 L78.8862647,17.6558824 C79.1396247,17.6558824 79.3529393,17.4663756 79.3827837,17.2147795 Z M78.831707,3.68022559 L80.7626319,0.776890072 C80.915554,0.546956554 80.853124,0.236590701 80.6231905,0.0836685362 C80.541153,0.0291077709 80.4448246,-1.84632062e-16 80.3463004,0 L67.9789291,0 C67.7255691,1.57563781e-16 67.5122545,0.189506726 67.4824101,0.441102846 L67.1393868,3.33288231 C67.1068588,3.60710219 67.3027888,3.85577048 67.5770087,3.88829848 C67.5963779,3.89059605 67.6158649,3.89175827 67.6353698,3.89177918 L78.4148395,3.90333523 C78.5824018,3.90351487 78.7389143,3.81974856 78.831707,3.68022559 Z M85.9121333,18 C87.3481347,18 88.4764216,16.8088235 88.4764216,15.2735294 C88.4764216,13.7911765 87.296849,12.6264706 85.8095618,12.6264706 C84.4248461,12.6264706 83.2709163,13.8176471 83.2709163,15.3 C83.2709163,16.7558824 84.4761318,18 85.9121333,18 Z M96.5230673,17.3576803 L97.5677694,14.9893785 C97.6477212,14.8081307 97.8271394,14.6911765 98.025238,14.6911765 L103.408955,14.6911765 C103.639764,14.6911765 103.84058,14.8491635 103.894907,15.0734873 L104.42773,17.2735715 C104.482057,17.4978954 104.682873,17.6558824 104.913682,17.6558824 L108.428706,17.6558824 C108.704848,17.6558824 108.928706,17.4320247 108.928706,17.1558824 C108.928706,17.1175561 108.924299,17.079357 108.915573,17.0420375 L105.0209,0.386155116 C104.968011,0.15997158 104.766318,-4.86759234e-16 104.534033,0 L100.372866,0 C100.180679,2.57348688e-16 100.005502,0.110154575 99.9222335,0.283365443 L91.9151739,16.9392478 C91.7955299,17.1881251 91.9002943,17.4868707 92.1491716,17.6065147 C92.2167666,17.6390099 92.290806,17.6558824 92.3658062,17.6558824 L96.0655986,17.6558824 C96.2636972,17.6558824 96.4431155,17.5389281 96.5230673,17.3576803 Z M102.981746,11.1970588 L99.2891706,11.1970588 L101.007244,7.25294118 C101.263673,6.64411765 101.494459,6.08823529 101.77653,5.16176471 C101.802173,5.45294118 101.853459,5.66470588 101.879102,5.79705882 C101.95603,6.32647059 101.981673,6.48529412 102.263745,7.83529412 L102.981746,11.1970588 Z M116.949789,17.2150117 L118.933411,0.559129338 C118.966067,0.284924703 118.770253,0.0361648205 118.496049,0.00350858881 C118.476426,0.00117158491 118.456681,-3.63018314e-18 118.436919,0 L115.110339,0 C114.857068,-6.74022768e-17 114.643799,0.189377092 114.613848,0.440870662 L112.630226,17.096753 C112.597569,17.3709576 112.793383,17.6197175 113.067588,17.6523738 C113.087211,17.6547108 113.106955,17.6558824 113.126717,17.6558824 L116.453297,17.6558824 C116.706568,17.6558824 116.919837,17.4665053 116.949789,17.2150117 Z" id="LINKZ.AI" fill="url(#linearGradient-1)"/>
            <path d="M0.27534934,21.4144496 L0.101687663,22.4144496 C0.0544394868,22.6865199 0.236693788,22.9453786 0.508764039,22.9926268 C0.537016644,22.9975332 0.565638961,23 0.594314429,23 L115.73668,23 C115.979232,23 116.186802,22.8259166 116.22904,22.58707 L116.405882,21.58707 C116.45397,21.3151468 116.272515,21.055727 116.000592,21.0076395 C115.971847,21.0025563 115.942712,21 115.913522,21 L0.767976106,21 C0.524841051,21 0.316949937,21.1748999 0.27534934,21.4144496 Z" id="Decoration" fill="#0024FF"/>
        </g>
    </g>
</svg>