<svg width="1056" height="1056" viewBox="0 0 1056 1056" fill="none" xmlns="http://www.w3.org/2000/svg">
<g clip-path="url(#clip0_403_2)">
<rect width="1056" height="1056" fill="white"/>
<rect width="1056" height="1056" rx="50" fill="#F3F8FF"/>
<g filter="url(#filter0_d_403_2)">
<path d="M102.013 923.334C102.013 955.734 126.958 982 157.729 982L898.284 982C929.055 982 954 955.734 954 923.334L954 444.216C954 411.816 929.055 385.55 898.284 385.55H592.063C577.568 385.549 563.645 379.599 553.248 368.965C553.248 368.965 529.493 338.5 521.5 338.5C513.507 338.5 491.118 368.965 491.118 368.965C481.932 380.602 467.967 385.55 452.113 385.55H157.729C99.6912 385.55 102.013 444.224 102.013 444.224C102.013 476.442 102.013 923.334 102.013 923.334Z" fill="white"/>
</g>
<rect x="217" y="444" width="621" height="343" rx="24" fill="url(#paint0_linear_403_2)" fill-opacity="0.7"/>
<circle cx="521" cy="615" r="60" fill="white" fill-opacity="0.373026"/>
<path fill-rule="evenodd" clip-rule="evenodd" d="M550.5 613.5L507.5 638.5V588.5L550.5 613.5Z" fill="white"/>
<rect x="201" y="842" width="87" height="24" rx="12" fill="#FFA3D7"/>
<rect x="315" y="842" width="213" height="24" rx="12" fill="#E6EAF5"/>
<rect x="558" y="842" width="297" height="24" rx="12" fill="#B5BFFF"/>
<rect x="201" y="896" width="198" height="24" rx="12" fill="#E6EAF5"/>
<rect x="426" y="896" width="231" height="24" rx="12" fill="#E6EAF5"/>
<rect x="687" y="896" width="129" height="24" rx="12" fill="#E6EAF5"/>
<path fill-rule="evenodd" clip-rule="evenodd" d="M180.66 229.676L178.062 250.396C177.837 252.189 176.31 253.534 174.501 253.534H111.589C111.447 253.534 111.305 253.525 111.165 253.509C109.197 253.275 107.791 251.492 108.026 249.527L122.262 130.16C122.477 128.357 124.008 127 125.826 127H149.701C149.843 127 149.984 127.008 150.125 127.025C152.093 127.259 153.499 129.042 153.264 131.008L142.442 221.639C142.425 221.78 142.417 221.922 142.417 222.064C142.417 224.043 144.024 225.647 146.006 225.647H177.099C177.248 225.647 177.397 225.656 177.545 225.675C179.511 225.921 180.906 227.712 180.66 229.676ZM252.402 131.007L238.166 250.374C237.951 252.177 236.42 253.534 234.602 253.534H210.727C210.585 253.534 210.443 253.525 210.302 253.509C208.334 253.275 206.929 251.492 207.163 249.527L221.4 130.16C221.615 128.357 223.146 127 224.964 127H248.839C248.981 127 249.122 127.008 249.263 127.025C251.231 127.259 252.637 129.042 252.402 131.007ZM307.306 250.376L313.921 195.104C314.841 187.326 315.21 180.687 315.21 171.201V165.51C320.363 178.221 324.964 187.896 330.301 196.812L361.843 251.733C362.482 252.847 363.67 253.534 364.956 253.534H393.738C395.556 253.534 397.087 252.177 397.301 250.374L411.538 131.007C411.773 129.042 410.367 127.259 408.399 127.025C408.258 127.008 408.117 127 407.975 127H384.104C382.285 127 380.753 128.36 380.54 130.165L373.367 191.121C372.447 198.519 372.079 204.779 371.895 212.747L369.509 208.017L369.496 207.992L364.734 198.363L364.721 198.339L364.713 198.321L364.7 198.296L359.413 188.148C359.391 188.106 359.368 188.065 359.345 188.024L325.445 128.805C324.806 127.689 323.617 127 322.329 127H294.102C292.285 127 290.754 128.357 290.539 130.16L276.302 249.527C276.068 251.492 277.473 253.275 279.441 253.509C279.582 253.525 279.724 253.534 279.866 253.534H303.742C305.56 253.534 307.09 252.177 307.306 250.376ZM472.873 196.432L466.44 250.374C466.225 252.177 464.695 253.534 462.877 253.534H439.002C438.86 253.534 438.718 253.525 438.577 253.509C436.609 253.275 435.204 251.492 435.438 249.527L449.675 130.16C449.89 128.357 451.421 127 453.238 127H477.112C477.255 127 477.397 127.008 477.538 127.025C479.506 127.26 480.911 129.043 480.676 131.008L476.157 168.79C476.003 170.076 476.556 171.345 477.604 172.109C479.205 173.276 481.45 172.926 482.619 171.327L513.944 128.471C514.619 127.547 515.697 127 516.842 127H543.68C544.438 127 545.176 127.24 545.79 127.684C547.393 128.848 547.748 131.089 546.583 132.69L505.27 189.469C504.383 190.688 504.355 192.332 505.2 193.581L541.974 247.945C542.374 248.537 542.588 249.236 542.588 249.95C542.588 251.93 540.982 253.534 539 253.534H510.34C509.126 253.534 507.994 252.921 507.332 251.904L482.075 213.126C478.762 208.004 475.266 201.365 472.873 196.432ZM670.113 250.373L672.575 229.652C672.808 227.687 671.402 225.905 669.434 225.672C669.294 225.655 669.152 225.647 669.011 225.647H624.718C622.736 225.647 621.13 224.043 621.13 222.064C621.13 221.358 621.338 220.667 621.73 220.079L647.391 181.551C648.489 179.904 648.041 177.679 646.391 176.583C645.802 176.193 645.112 175.984 644.405 175.984L617.841 175.968C616.647 175.968 615.531 176.56 614.864 177.548L567.318 247.947C566.21 249.588 566.644 251.815 568.287 252.921C568.88 253.321 569.578 253.534 570.293 253.534H666.55C668.368 253.534 669.899 252.176 670.113 250.373ZM680.017 132.568L666.158 153.375C665.492 154.375 664.369 154.975 663.166 154.974L585.8 154.891C585.66 154.891 585.52 154.883 585.381 154.866C583.413 154.633 582.007 152.851 582.241 150.886L584.702 130.161C584.917 128.358 586.448 127 588.266 127H677.029C677.736 127 678.427 127.209 679.016 127.6C680.666 128.696 681.114 130.92 680.017 132.568ZM716.975 256C727.282 256 735.38 247.463 735.38 236.46C735.38 225.837 726.914 217.49 716.239 217.49C706.301 217.49 698.019 226.026 698.019 236.65C698.019 247.084 706.669 256 716.975 256ZM800.63 234.424L793.132 251.397C792.558 252.696 791.27 253.534 789.849 253.534H763.295C762.756 253.534 762.225 253.413 761.74 253.18C759.953 252.323 759.202 250.182 760.06 248.398L817.528 129.031C818.126 127.789 819.383 127 820.763 127H850.628C852.295 127 853.743 128.146 854.122 129.767L882.075 249.135C882.138 249.402 882.169 249.676 882.169 249.95C882.169 251.93 880.562 253.534 878.581 253.534H853.353C851.696 253.534 850.255 252.402 849.865 250.794L846.041 235.027C845.651 233.419 844.21 232.287 842.553 232.287H803.913C802.491 232.287 801.204 233.125 800.63 234.424ZM839.487 207.246H812.985L825.315 178.979C827.156 174.616 828.812 170.632 830.837 163.993C830.988 165.703 831.262 167.031 831.458 167.977L831.507 168.218C831.531 168.334 831.553 168.443 831.573 168.546C832.125 172.34 832.309 173.478 834.334 183.153L839.487 207.246ZM953.974 131.007L939.738 250.374C939.523 252.177 937.992 253.534 936.174 253.534H912.299C912.157 253.534 912.015 253.525 911.875 253.509C909.906 253.275 908.501 251.492 908.735 249.527L922.972 130.16C923.187 128.357 924.718 127 926.536 127H950.411C950.553 127 950.695 127.008 950.835 127.025C952.803 127.259 954.209 129.042 953.974 131.007Z" fill="url(#paint1_linear_403_2)"/>
<path d="M103.299 280.901L102.053 287.901C101.715 289.806 103.021 291.618 104.972 291.948C105.175 291.983 105.38 292 105.586 292H931.146C932.886 292 934.374 290.781 934.677 289.109L935.945 282.109C936.289 280.206 934.988 278.39 933.039 278.053C932.833 278.018 932.624 278 932.414 278H106.831C105.087 278 103.597 279.224 103.299 280.901Z" fill="#0024FF"/>
</g>
<defs>
<filter id="filter0_d_403_2" x="42" y="288.5" width="972" height="763.5" filterUnits="userSpaceOnUse" color-interpolation-filters="sRGB">
<feFlood flood-opacity="0" result="BackgroundImageFix"/>
<feColorMatrix in="SourceAlpha" type="matrix" values="0 0 0 0 0 0 0 0 0 0 0 0 0 0 0 0 0 0 127 0" result="hardAlpha"/>
<feOffset dy="10"/>
<feGaussianBlur stdDeviation="30"/>
<feColorMatrix type="matrix" values="0 0 0 0 0 0 0 0 0 0 0 0 0 0 0 0 0 0 0.1527 0"/>
<feBlend mode="normal" in2="BackgroundImageFix" result="effect1_dropShadow_403_2"/>
<feBlend mode="normal" in="SourceGraphic" in2="effect1_dropShadow_403_2" result="shape"/>
</filter>
<linearGradient id="paint0_linear_403_2" x1="838" y1="787" x2="838" y2="444" gradientUnits="userSpaceOnUse">
<stop stop-color="#F2B8EC"/>
<stop offset="1" stop-color="#FFBC8B"/>
</linearGradient>
<linearGradient id="paint1_linear_403_2" x1="954" y1="256" x2="954" y2="127" gradientUnits="userSpaceOnUse">
<stop stop-color="#0024FF"/>
<stop offset="0.78" stop-color="#0079FF"/>
<stop offset="0.78" stop-color="#FF00B7"/>
<stop offset="1" stop-color="#FF0000"/>
</linearGradient>
<clipPath id="clip0_403_2">
<rect width="1056" height="1056" fill="white"/>
</clipPath>
</defs>
</svg>
